Citadel-Solid.ufo
<glyph name="exclam" format="1">
  <advance width="200"/>
  <unicode hex="0021"/>
  <outline>
    <contour>
      <point x="160" y="189" type="line"/>
      <point x="40" y="189" type="line"/>
      <point x="40" y="700" type="line"/>
      <point x="160" y="700" type="line"/>
    </contour>
    <contour>
      <point x="160" y="0" type="line"/>
      <point x="40" y="0" type="line"/>
      <point x="40" y="137" type="line"/>
      <point x="160" y="137" type="line"/>
    </contour>
  </outline>
</glyph>
<glyph name="quotedbl" format="1">
  <advance width="350"/>
  <unicode hex="0022"/>
  <outline>
    <contour>
      <point x="315" y="460" type="line"/>
      <point x="195" y="460" type="line"/>
      <point x="195" y="700" type="line"/>
      <point x="315" y="700" type="line"/>
    </contour>
    <contour>
      <point x="155" y="460" type="line"/>
      <point x="35" y="460" type="line"/>
      <point x="35" y="700" type="line"/>
      <point x="155" y="700" type="line"/>
    </contour>
  </outline>
</glyph>
<glyph name="dollar" format="1">
  <advance width="368"/>
  <unicode hex="0024"/>
  <outline>
    <contour>
      <point x="339" y="150" type="line" smooth="yes"/>
      <point x="339" y="110"/>
      <point x="310" y="88"/>
      <point x="256" y="80" type="curve"/>
      <point x="256" y="0" type="line"/>
      <point x="200" y="0" type="line"/>
      <point x="200" y="75" type="line"/>
      <point x="195" y="75"/>
      <point x="190" y="75"/>
      <point x="184" y="75" type="curve" smooth="yes"/>
      <point x="179" y="75"/>
      <point x="173" y="75"/>
      <point x="168" y="75" type="curve"/>
      <point x="168" y="0" type="line"/>
      <point x="112" y="0" type="line"/>
      <point x="112" y="80" type="line"/>
      <point x="58" y="88"/>
      <point x="29" y="110"/>
      <point x="29" y="150" type="curve" smooth="yes"/>
      <point x="29" y="240" type="line"/>
      <point x="151" y="240" type="line"/>
      <point x="151" y="131" type="line"/>
      <point x="159" y="129"/>
      <point x="174" y="128"/>
      <point x="184" y="128" type="curve" smooth="yes"/>
      <point x="194" y="128"/>
      <point x="209" y="129"/>
      <point x="217" y="131" type="curve"/>
      <point x="217" y="252" type="line"/>
      <point x="80" y="345" type="line" smooth="yes"/>
      <point x="48" y="367"/>
      <point x="29" y="385"/>
      <point x="29" y="420" type="curve" smooth="yes"/>
      <point x="29" y="550" type="line" smooth="yes"/>
      <point x="29" y="590"/>
      <point x="58" y="611"/>
      <point x="112" y="620" type="curve"/>
      <point x="112" y="700" type="line"/>
      <point x="168" y="700" type="line"/>
      <point x="168" y="625" type="line"/>
      <point x="173" y="625"/>
      <point x="179" y="625"/>
      <point x="184" y="625" type="curve" smooth="yes"/>
      <point x="189" y="625"/>
      <point x="195" y="625"/>
      <point x="200" y="625" type="curve"/>
      <point x="200" y="700" type="line"/>
      <point x="256" y="700" type="line"/>
      <point x="256" y="620" type="line"/>
      <point x="311" y="612"/>
      <point x="339" y="590"/>
      <point x="339" y="550" type="curve" smooth="yes"/>
      <point x="339" y="460" type="line"/>
      <point x="217" y="460" type="line"/>
      <point x="217" y="569" type="line"/>
      <point x="209" y="571"/>
      <point x="194" y="572"/>
      <point x="184" y="572" type="curve" smooth="yes"/>
      <point x="174" y="572"/>
      <point x="159" y="571"/>
      <point x="151" y="569" type="curve"/>
      <point x="151" y="448" type="line"/>
      <point x="291" y="353" type="line" smooth="yes"/>
      <point x="321" y="332"/>
      <point x="339" y="314"/>
      <point x="339" y="279" type="curve" smooth="yes"/>
    </contour>
  </outline>
</glyph>
<glyph name="parenright" format="1">
  <advance width="215"/>
  <unicode hex="0029"/>
  <outline>
    <contour>
      <point x="185" y="56" type="line" smooth="yes"/>
      <point x="185" y="13"/>
      <point x="157" y="0"/>
      <point x="115" y="0" type="curve" smooth="yes"/>
      <point x="15" y="0" type="line"/>
      <point x="15" y="48" type="line"/>
      <point x="65" y="48" type="line"/>
      <point x="65" y="652" type="line"/>
      <point x="15" y="652" type="line"/>
      <point x="15" y="700" type="line"/>
      <point x="115" y="700" type="line" smooth="yes"/>
      <point x="157" y="700"/>
      <point x="185" y="687"/>
      <point x="185" y="644" type="curve" smooth="yes"/>
    </contour>
  </outline>
</glyph>
<glyph name="plus" format="1">
  <advance width="280"/>
  <unicode hex="002B"/>
  <outline>
    <contour>
      <point x="255" y="328" type="line"/>
      <point x="168" y="328" type="line"/>
      <point x="168" y="238" type="line"/>
      <point x="112" y="238" type="line"/>
      <point x="112" y="328" type="line"/>
      <point x="25" y="328" type="line"/>
      <point x="25" y="378" type="line"/>
      <point x="112" y="378" type="line"/>
      <point x="112" y="468" type="line"/>
      <point x="168" y="468" type="line"/>
      <point x="168" y="378" type="line"/>
      <point x="255" y="378" type="line"/>
    </contour>
  </outline>
</glyph>
<glyph name="comma" format="1">
  <advance width="190"/>
  <unicode hex="002C"/>
  <outline>
    <contour>
      <point x="170" y="137" type="line"/>
      <point x="140" y="-72" type="line"/>
      <point x="20" y="-72" type="line"/>
      <point x="50" y="137" type="line"/>
    </contour>
  </outline>
</glyph>
<glyph name="slash" format="1">
  <advance width="204"/>
  <unicode hex="002F"/>
  <outline>
    <contour>
      <point x="189" y="700" type="line"/>
      <point x="68" y="0" type="line"/>
      <point x="15" y="0" type="line"/>
      <point x="136" y="700" type="line"/>
    </contour>
  </outline>
</glyph>
<glyph name="three" format="1">
  <advance width="370"/>
  <unicode hex="0033"/>
  <outline>
    <contour>
      <point x="340" y="70" type="line" smooth="yes"/>
      <point x="340" y="15"/>
      <point x="283" y="-5"/>
      <point x="185" y="-5" type="curve" smooth="yes"/>
      <point x="86" y="-5"/>
      <point x="30" y="15"/>
      <point x="30" y="70" type="curve" smooth="yes"/>
      <point x="30" y="240" type="line"/>
      <point x="152" y="240" type="line"/>
      <point x="152" y="51" type="line"/>
      <point x="160" y="49"/>
      <point x="175" y="48"/>
      <point x="185" y="48" type="curve" smooth="yes"/>
      <point x="195" y="48"/>
      <point x="210" y="49"/>
      <point x="218" y="51" type="curve"/>
      <point x="218" y="326" type="line"/>
      <point x="210" y="328"/>
      <point x="200" y="329"/>
      <point x="185" y="329" type="curve" smooth="yes"/>
      <point x="102" y="329" type="line"/>
      <point x="102" y="377" type="line"/>
      <point x="185" y="377" type="line" smooth="yes"/>
      <point x="200" y="377"/>
      <point x="210" y="378"/>
      <point x="218" y="380" type="curve"/>
      <point x="218" y="649" type="line"/>
      <point x="210" y="651"/>
      <point x="195" y="652"/>
      <point x="185" y="652" type="curve" smooth="yes"/>
      <point x="175" y="652"/>
      <point x="160" y="651"/>
      <point x="152" y="649" type="curve"/>
      <point x="152" y="460" type="line"/>
      <point x="30" y="460" type="line"/>
      <point x="30" y="630" type="line" smooth="yes"/>
      <point x="30" y="685"/>
      <point x="86" y="705"/>
      <point x="185" y="705" type="curve" smooth="yes"/>
      <point x="283" y="705"/>
      <point x="340" y="685"/>
      <point x="340" y="630" type="curve" smooth="yes"/>
      <point x="340" y="426" type="line" smooth="yes"/>
      <point x="340" y="380"/>
      <point x="319" y="363"/>
      <point x="280" y="353" type="curve"/>
      <point x="319" y="343"/>
      <point x="340" y="326"/>
      <point x="340" y="280" type="curve" smooth="yes"/>
    </contour>
  </outline>
</glyph>
<glyph name="five" format="1">
  <advance width="364"/>
  <unicode hex="0035"/>
  <outline>
    <contour>
      <point x="333" y="70" type="line" smooth="yes"/>
      <point x="333" y="15"/>
      <point x="274" y="-5"/>
      <point x="181" y="-5" type="curve" smooth="yes"/>
      <point x="87" y="-5"/>
      <point x="29" y="15"/>
      <point x="29" y="70" type="curve" smooth="yes"/>
      <point x="29" y="240" type="line"/>
      <point x="151" y="240" type="line"/>
      <point x="151" y="51" type="line"/>
      <point x="159" y="49"/>
      <point x="171" y="48"/>
      <point x="181" y="48" type="curve" smooth="yes"/>
      <point x="191" y="48"/>
      <point x="203" y="49"/>
      <point x="211" y="51" type="curve"/>
      <point x="211" y="335" type="line"/>
      <point x="203" y="337"/>
      <point x="192" y="338"/>
      <point x="178" y="338" type="curve" smooth="yes"/>
      <point x="29" y="338" type="line"/>
      <point x="29" y="700" type="line"/>
      <point x="333" y="700" type="line"/>
      <point x="333" y="460" type="line"/>
      <point x="211" y="460" type="line"/>
      <point x="211" y="652" type="line"/>
      <point x="151" y="652" type="line"/>
      <point x="151" y="386" type="line"/>
      <point x="178" y="386" type="line" smooth="yes"/>
      <point x="277" y="386"/>
      <point x="333" y="366"/>
      <point x="333" y="311" type="curve" smooth="yes"/>
    </contour>
  </outline>
</glyph>
<glyph name="six" format="1">
  <advance width="370"/>
  <unicode hex="0036"/>
  <outline>
    <contour>
      <point x="340" y="70" type="line" smooth="yes"/>
      <point x="340" y="15"/>
      <point x="284" y="-5"/>
      <point x="185" y="-5" type="curve" smooth="yes"/>
      <point x="87" y="-5"/>
      <point x="30" y="15"/>
      <point x="30" y="70" type="curve" smooth="yes"/>
      <point x="30" y="630" type="line" smooth="yes"/>
      <point x="30" y="685"/>
      <point x="87" y="705"/>
      <point x="185" y="705" type="curve" smooth="yes"/>
      <point x="284" y="705"/>
      <point x="340" y="685"/>
      <point x="340" y="630" type="curve" smooth="yes"/>
      <point x="340" y="460" type="line"/>
      <point x="218" y="460" type="line"/>
      <point x="218" y="649" type="line"/>
      <point x="210" y="651"/>
      <point x="195" y="652"/>
      <point x="185" y="652" type="curve" smooth="yes"/>
      <point x="175" y="652"/>
      <point x="160" y="651"/>
      <point x="152" y="649" type="curve"/>
      <point x="152" y="412" type="line"/>
      <point x="185" y="412" type="line" smooth="yes"/>
      <point x="284" y="412"/>
      <point x="340" y="392"/>
      <point x="340" y="337" type="curve" smooth="yes"/>
    </contour>
    <contour>
      <point x="218" y="51" type="curve"/>
      <point x="218" y="361" type="line"/>
      <point x="210" y="363"/>
      <point x="197" y="364"/>
      <point x="185" y="364" type="curve" smooth="yes"/>
      <point x="152" y="364" type="line"/>
      <point x="152" y="51" type="line"/>
      <point x="160" y="49"/>
      <point x="175" y="48"/>
      <point x="185" y="48" type="curve" smooth="yes"/>
      <point x="195" y="48"/>
      <point x="210" y="49"/>
    </contour>
  </outline>
</glyph>
<glyph name="seven" format="1">
  <advance width="352"/>
  <unicode hex="0037"/>
  <outline>
    <contour>
      <point x="335" y="652" type="line"/>
      <point x="194" y="0" type="line"/>
      <point x="77" y="0" type="line"/>
      <point x="218" y="652" type="line"/>
      <point x="134" y="652" type="line"/>
      <point x="134" y="460" type="line"/>
      <point x="20" y="460" type="line"/>
      <point x="20" y="700" type="line"/>
      <point x="335" y="700" type="line"/>
    </contour>
  </outline>
</glyph>
<glyph name="eight" format="1">
  <advance width="374"/>
  <unicode hex="0038"/>
  <outline>
    <contour>
      <point x="344" y="70" type="line" smooth="yes"/>
      <point x="344" y="15"/>
      <point x="286" y="-5"/>
      <point x="187" y="-5" type="curve" smooth="yes"/>
      <point x="89" y="-5"/>
      <point x="30" y="15"/>
      <point x="30" y="70" type="curve" smooth="yes"/>
      <point x="30" y="280" type="line" smooth="yes"/>
      <point x="30" y="326"/>
      <point x="51" y="343"/>
      <point x="90" y="353" type="curve"/>
      <point x="51" y="363"/>
      <point x="30" y="380"/>
      <point x="30" y="426" type="curve" smooth="yes"/>
      <point x="30" y="630" type="line" smooth="yes"/>
      <point x="30" y="685"/>
      <point x="89" y="705"/>
      <point x="187" y="705" type="curve" smooth="yes"/>
      <point x="286" y="705"/>
      <point x="344" y="685"/>
      <point x="344" y="630" type="curve" smooth="yes"/>
      <point x="344" y="426" type="line" smooth="yes"/>
      <point x="344" y="380"/>
      <point x="323" y="363"/>
      <point x="284" y="353" type="curve"/>
      <point x="323" y="343"/>
      <point x="344" y="326"/>
      <point x="344" y="280" type="curve" smooth="yes"/>
    </contour>
    <contour>
      <point x="222" y="380" type="curve"/>
      <point x="222" y="649" type="line"/>
      <point x="214" y="651"/>
      <point x="197" y="652"/>
      <point x="187" y="652" type="curve" smooth="yes"/>
      <point x="177" y="652"/>
      <point x="160" y="651"/>
      <point x="152" y="649" type="curve"/>
      <point x="152" y="380" type="line"/>
      <point x="160" y="378"/>
      <point x="177" y="377"/>
      <point x="187" y="377" type="curve" smooth="yes"/>
      <point x="197" y="377"/>
      <point x="214" y="378"/>
    </contour>
    <contour>
      <point x="222" y="51" type="curve"/>
      <point x="222" y="326" type="line"/>
      <point x="214" y="328"/>
      <point x="197" y="329"/>
      <point x="187" y="329" type="curve" smooth="yes"/>
      <point x="177" y="329"/>
      <point x="160" y="328"/>
      <point x="152" y="326" type="curve"/>
      <point x="152" y="51" type="line"/>
      <point x="160" y="49"/>
      <point x="177" y="48"/>
      <point x="187" y="48" type="curve" smooth="yes"/>
      <point x="197" y="48"/>
      <point x="214" y="49"/>
    </contour>
  </outline>
</glyph>
<glyph name="colon" format="1">
  <advance width="190"/>
  <unicode hex="003A"/>
  <outline>
    <contour>
      <point x="155" y="285" type="line"/>
      <point x="35" y="285" type="line"/>
      <point x="35" y="422" type="line"/>
      <point x="155" y="422" type="line"/>
    </contour>
    <contour>
      <point x="155" y="0" type="line"/>
      <point x="35" y="0" type="line"/>
      <point x="35" y="137" type="line"/>
      <point x="155" y="137" type="line"/>
    </contour>
  </outline>
</glyph>
<glyph name="semicolon" format="1">
  <advance width="190"/>
  <unicode hex="003B"/>
  <outline>
    <contour>
      <point x="162" y="285" type="line"/>
      <point x="42" y="285" type="line"/>
      <point x="42" y="422" type="line"/>
      <point x="162" y="422" type="line"/>
    </contour>
    <contour>
      <point x="162" y="137" type="line"/>
      <point x="132" y="-72" type="line"/>
      <point x="12" y="-72" type="line"/>
      <point x="42" y="137" type="line"/>
    </contour>
  </outline>
</glyph>
<glyph name="equal" format="1">
  <advance width="300"/>
  <unicode hex="003D"/>
  <outline>
    <contour>
      <point x="265" y="381" type="line"/>
      <point x="35" y="381" type="line"/>
      <point x="35" y="437" type="line"/>
      <point x="265" y="437" type="line"/>
    </contour>
    <contour>
      <point x="265" y="269" type="line"/>
      <point x="35" y="269" type="line"/>
      <point x="35" y="325" type="line"/>
      <point x="265" y="325" type="line"/>
    </contour>
  </outline>
</glyph>
<glyph name="question" format="1">
  <advance width="356"/>
  <unicode hex="003F"/>
  <outline>
    <contour>
      <point x="333" y="496" type="line" smooth="yes"/>
      <point x="333" y="475"/>
      <point x="328" y="461"/>
      <point x="316" y="439" type="curve" smooth="yes"/>
      <point x="224" y="270" type="line"/>
      <point x="224" y="189" type="line"/>
      <point x="104" y="189" type="line"/>
      <point x="104" y="265" type="line" smooth="yes"/>
      <point x="104" y="286"/>
      <point x="109" y="300"/>
      <point x="121" y="322" type="curve" smooth="yes"/>
      <point x="213" y="491" type="line"/>
      <point x="213" y="649" type="line"/>
      <point x="205" y="651"/>
      <point x="187" y="652"/>
      <point x="177" y="652" type="curve" smooth="yes"/>
      <point x="167" y="652"/>
      <point x="149" y="651"/>
      <point x="141" y="649" type="curve"/>
      <point x="141" y="460" type="line"/>
      <point x="19" y="460" type="line"/>
      <point x="19" y="630" type="line" smooth="yes"/>
      <point x="19" y="685"/>
      <point x="76" y="705"/>
      <point x="177" y="705" type="curve" smooth="yes"/>
      <point x="277" y="705"/>
      <point x="333" y="685"/>
      <point x="333" y="630" type="curve" smooth="yes"/>
    </contour>
    <contour>
      <point x="224" y="0" type="line"/>
      <point x="104" y="0" type="line"/>
      <point x="104" y="137" type="line"/>
      <point x="224" y="137" type="line"/>
    </contour>
  </outline>
</glyph>
<glyph name="F" format="1">
  <advance width="371"/>
  <unicode hex="0046"/>
  <outline>
    <contour>
      <point x="348" y="460" type="line"/>
      <point x="224" y="460" type="line"/>
      <point x="224" y="652" type="line"/>
      <point x="174" y="652" type="line"/>
      <point x="174" y="377" type="line"/>
      <point x="274" y="377" type="line"/>
      <point x="274" y="329" type="line"/>
      <point x="174" y="329" type="line"/>
      <point x="174" y="48" type="line"/>
      <point x="204" y="48" type="line"/>
      <point x="204" y="0" type="line"/>
      <point x="20" y="0" type="line"/>
      <point x="20" y="48" type="line"/>
      <point x="50" y="48" type="line"/>
      <point x="50" y="652" type="line"/>
      <point x="20" y="652" type="line"/>
      <point x="20" y="700" type="line"/>
      <point x="348" y="700" type="line"/>
    </contour>
  </outline>
</glyph>
<glyph name="G" format="1">
  <advance width="380"/>
  <unicode hex="0047"/>
  <outline>
    <contour>
      <point x="350" y="70" type="line" smooth="yes"/>
      <point x="350" y="15"/>
      <point x="296" y="-5"/>
      <point x="190" y="-5" type="curve" smooth="yes"/>
      <point x="85" y="-5"/>
      <point x="30" y="15"/>
      <point x="30" y="70" type="curve" smooth="yes"/>
      <point x="30" y="630" type="line" smooth="yes"/>
      <point x="30" y="685"/>
      <point x="85" y="705"/>
      <point x="190" y="705" type="curve" smooth="yes"/>
      <point x="296" y="705"/>
      <point x="350" y="685"/>
      <point x="350" y="630" type="curve" smooth="yes"/>
      <point x="350" y="460" type="line"/>
      <point x="226" y="460" type="line"/>
      <point x="226" y="649" type="line"/>
      <point x="218" y="651"/>
      <point x="200" y="652"/>
      <point x="190" y="652" type="curve" smooth="yes"/>
      <point x="180" y="652"/>
      <point x="162" y="651"/>
      <point x="154" y="649" type="curve"/>
      <point x="154" y="51" type="line"/>
      <point x="162" y="49"/>
      <point x="180" y="48"/>
      <point x="190" y="48" type="curve" smooth="yes"/>
      <point x="200" y="48"/>
      <point x="218" y="49"/>
      <point x="226" y="51" type="curve"/>
      <point x="226" y="329" type="line"/>
      <point x="193" y="329" type="line"/>
      <point x="193" y="377" type="line"/>
      <point x="350" y="377" type="line"/>
    </contour>
  </outline>
</glyph>
<glyph name="H" format="1">
  <advance width="422"/>
  <unicode hex="0048"/>
  <outline>
    <contour>
      <point x="402" y="0" type="line"/>
      <point x="228" y="0" type="line"/>
      <point x="228" y="48" type="line"/>
      <point x="248" y="48" type="line"/>
      <point x="248" y="329" type="line"/>
      <point x="174" y="329" type="line"/>
      <point x="174" y="48" type="line"/>
      <point x="194" y="48" type="line"/>
      <point x="194" y="0" type="line"/>
      <point x="20" y="0" type="line"/>
      <point x="20" y="48" type="line"/>
      <point x="50" y="48" type="line"/>
      <point x="50" y="652" type="line"/>
      <point x="20" y="652" type="line"/>
      <point x="20" y="700" type="line"/>
      <point x="194" y="700" type="line"/>
      <point x="194" y="652" type="line"/>
      <point x="174" y="652" type="line"/>
      <point x="174" y="377" type="line"/>
      <point x="248" y="377" type="line"/>
      <point x="248" y="652" type="line"/>
      <point x="228" y="652" type="line"/>
      <point x="228" y="700" type="line"/>
      <point x="402" y="700" type="line"/>
      <point x="402" y="652" type="line"/>
      <point x="372" y="652" type="line"/>
      <point x="372" y="48" type="line"/>
      <point x="402" y="48" type="line"/>
    </contour>
  </outline>
</glyph>
<glyph name="I" format="1">
  <advance width="232"/>
  <unicode hex="0049"/>
  <outline>
    <contour>
      <point x="208" y="0" type="line"/>
      <point x="24" y="0" type="line"/>
      <point x="24" y="48" type="line"/>
      <point x="54" y="48" type="line"/>
      <point x="54" y="652" type="line"/>
      <point x="24" y="652" type="line"/>
      <point x="24" y="700" type="line"/>
      <point x="208" y="700" type="line"/>
      <point x="208" y="652" type="line"/>
      <point x="178" y="652" type="line"/>
      <point x="178" y="48" type="line"/>
      <point x="208" y="48" type="line"/>
    </contour>
  </outline>
</glyph>
<glyph name="K" format="1">
  <advance width="409"/>
  <unicode hex="004B"/>
  <outline>
    <contour>
      <point x="402" y="0" type="line"/>
      <point x="257" y="0" type="line"/>
      <point x="174" y="320" type="line"/>
      <point x="174" y="48" type="line"/>
      <point x="204" y="48" type="line"/>
      <point x="204" y="0" type="line"/>
      <point x="20" y="0" type="line"/>
      <point x="20" y="48" type="line"/>
      <point x="50" y="48" type="line"/>
      <point x="50" y="652" type="line"/>
      <point x="20" y="652" type="line"/>
      <point x="20" y="700" type="line"/>
      <point x="204" y="700" type="line"/>
      <point x="204" y="652" type="line"/>
      <point x="174" y="652" type="line"/>
      <point x="174" y="391" type="line"/>
      <point x="292" y="652" type="line"/>
      <point x="261" y="652" type="line"/>
      <point x="261" y="700" type="line"/>
      <point x="390" y="700" type="line"/>
      <point x="390" y="652" type="line"/>
      <point x="360" y="652" type="line"/>
      <point x="265" y="451" type="line"/>
      <point x="372" y="48" type="line"/>
      <point x="402" y="48" type="line"/>
    </contour>
  </outline>
</glyph>
<glyph name="L" format="1">
  <advance width="371"/>
  <unicode hex="004C"/>
  <outline>
    <contour>
      <point x="348" y="0" type="line"/>
      <point x="20" y="0" type="line"/>
      <point x="20" y="48" type="line"/>
      <point x="50" y="48" type="line"/>
      <point x="50" y="652" type="line"/>
      <point x="20" y="652" type="line"/>
      <point x="20" y="700" type="line"/>
      <point x="204" y="700" type="line"/>
      <point x="204" y="652" type="line"/>
      <point x="174" y="652" type="line"/>
      <point x="174" y="48" type="line"/>
      <point x="224" y="48" type="line"/>
      <point x="224" y="240" type="line"/>
      <point x="348" y="240" type="line"/>
    </contour>
  </outline>
</glyph>
<glyph name="N" format="1">
  <advance width="387"/>
  <unicode hex="004E"/>
  <outline>
    <contour>
      <point x="372" y="652" type="line"/>
      <point x="342" y="652" type="line"/>
      <point x="342" y="0" type="line"/>
      <point x="246" y="0" type="line"/>
      <point x="110" y="468" type="line"/>
      <point x="110" y="48" type="line"/>
      <point x="140" y="48" type="line"/>
      <point x="140" y="0" type="line"/>
      <point x="20" y="0" type="line"/>
      <point x="20" y="48" type="line"/>
      <point x="50" y="48" type="line"/>
      <point x="50" y="652" type="line"/>
      <point x="20" y="652" type="line"/>
      <point x="20" y="700" type="line"/>
      <point x="167" y="700" type="line"/>
      <point x="282" y="292" type="line"/>
      <point x="282" y="652" type="line"/>
      <point x="252" y="652" type="line"/>
      <point x="252" y="700" type="line"/>
      <point x="372" y="700" type="line"/>
    </contour>
  </outline>
</glyph>
<glyph name="P" format="1">
  <advance width="391"/>
  <unicode hex="0050"/>
  <outline>
    <contour>
      <point x="364" y="359" type="line" smooth="yes"/>
      <point x="364" y="304"/>
      <point x="309" y="284"/>
      <point x="208" y="284" type="curve" smooth="yes"/>
      <point x="174" y="284" type="line"/>
      <point x="174" y="48" type="line"/>
      <point x="204" y="48" type="line"/>
      <point x="204" y="0" type="line"/>
      <point x="20" y="0" type="line"/>
      <point x="20" y="48" type="line"/>
      <point x="50" y="48" type="line"/>
      <point x="50" y="652" type="line"/>
      <point x="20" y="652" type="line"/>
      <point x="20" y="700" type="line"/>
      <point x="208" y="700" type="line" smooth="yes"/>
      <point x="309" y="700"/>
      <point x="364" y="680"/>
      <point x="364" y="625" type="curve" smooth="yes"/>
    </contour>
    <contour>
      <point x="240" y="335" type="curve"/>
      <point x="240" y="649" type="line"/>
      <point x="232" y="651"/>
      <point x="222" y="652"/>
      <point x="207" y="652" type="curve" smooth="yes"/>
      <point x="174" y="652" type="line"/>
      <point x="174" y="332" type="line"/>
      <point x="207" y="332" type="line" smooth="yes"/>
      <point x="222" y="332"/>
      <point x="232" y="333"/>
    </contour>
  </outline>
</glyph>
<glyph name="T" format="1">
  <advance width="408"/>
  <unicode hex="0054"/>
  <outline>
    <contour>
      <point x="392" y="460" type="line"/>
      <point x="290" y="460" type="line"/>
      <point x="290" y="655" type="line"/>
      <point x="265" y="655" type="line"/>
      <point x="265" y="48" type="line"/>
      <point x="298" y="48" type="line"/>
      <point x="298" y="0" type="line"/>
      <point x="110" y="0" type="line"/>
      <point x="110" y="48" type="line"/>
      <point x="143" y="48" type="line"/>
      <point x="143" y="655" type="line"/>
      <point x="118" y="655" type="line"/>
      <point x="118" y="460" type="line"/>
      <point x="16" y="460" type="line"/>
      <point x="16" y="700" type="line"/>
      <point x="392" y="700" type="line"/>
    </contour>
  </outline>
</glyph>
<glyph name="U" format="1">
  <advance width="410"/>
  <unicode hex="0055"/>
  <outline>
    <contour>
      <point x="395" y="652" type="line"/>
      <point x="365" y="652" type="line"/>
      <point x="365" y="70" type="line" smooth="yes"/>
      <point x="365" y="15"/>
      <point x="310" y="-5"/>
      <point x="205" y="-5" type="curve" smooth="yes"/>
      <point x="101" y="-5"/>
      <point x="45" y="15"/>
      <point x="45" y="70" type="curve" smooth="yes"/>
      <point x="45" y="652" type="line"/>
      <point x="15" y="652" type="line"/>
      <point x="15" y="700" type="line"/>
      <point x="188" y="700" type="line"/>
      <point x="188" y="652" type="line"/>
      <point x="169" y="652" type="line"/>
      <point x="169" y="51" type="line"/>
      <point x="177" y="49"/>
      <point x="195" y="48"/>
      <point x="205" y="48" type="curve" smooth="yes"/>
      <point x="215" y="48"/>
      <point x="233" y="49"/>
      <point x="241" y="51" type="curve"/>
      <point x="241" y="652" type="line"/>
      <point x="222" y="652" type="line"/>
      <point x="222" y="700" type="line"/>
      <point x="395" y="700" type="line"/>
    </contour>
  </outline>
</glyph>
<glyph name="V" format="1">
  <advance width="374"/>
  <unicode hex="0056"/>
  <outline>
    <contour>
      <point x="369" y="652" type="line"/>
      <point x="337" y="652" type="line"/>
      <point x="250" y="0" type="line"/>
      <point x="124" y="0" type="line"/>
      <point x="37" y="652" type="line"/>
      <point x="5" y="652" type="line"/>
      <point x="5" y="700" type="line"/>
      <point x="159" y="700" type="line"/>
      <point x="219" y="182" type="line"/>
      <point x="273" y="652" type="line"/>
      <point x="237" y="652" type="line"/>
      <point x="237" y="700" type="line"/>
      <point x="369" y="700" type="line"/>
    </contour>
  </outline>
</glyph>
<glyph name="W" format="1">
  <advance width="535"/>
  <unicode hex="0057"/>
  <outline>
    <contour>
      <point x="530" y="652" type="line"/>
      <point x="498" y="652" type="line"/>
      <point x="426" y="0" type="line"/>
      <point x="300" y="0" type="line"/>
      <point x="264" y="322" type="line"/>
      <point x="235" y="0" type="line"/>
      <point x="109" y="0" type="line"/>
      <point x="37" y="652" type="line"/>
      <point x="5" y="652" type="line"/>
      <point x="5" y="700" type="line"/>
      <point x="159" y="700" type="line"/>
      <point x="204" y="209" type="line"/>
      <point x="240" y="545" type="line"/>
      <point x="228" y="652" type="line"/>
      <point x="201" y="652" type="line"/>
      <point x="201" y="700" type="line"/>
      <point x="350" y="700" type="line"/>
      <point x="395" y="209" type="line"/>
      <point x="433" y="652" type="line"/>
      <point x="402" y="652" type="line"/>
      <point x="402" y="700" type="line"/>
      <point x="530" y="700" type="line"/>
    </contour>
  </outline>
</glyph>
<glyph name="X" format="1">
  <advance width="370"/>
  <unicode hex="0058"/>
  <outline>
    <contour>
      <point x="360" y="0" type="line"/>
      <point x="213" y="0" type="line"/>
      <point x="159" y="221" type="line"/>
      <point x="107" y="48" type="line"/>
      <point x="137" y="48" type="line"/>
      <point x="137" y="0" type="line"/>
      <point x="10" y="0" type="line"/>
      <point x="10" y="48" type="line"/>
      <point x="40" y="48" type="line"/>
      <point x="132" y="325" type="line"/>
      <point x="44" y="652" type="line"/>
      <point x="14" y="652" type="line"/>
      <point x="14" y="700" type="line"/>
      <point x="161" y="700" type="line"/>
      <point x="212" y="490" type="line"/>
      <point x="259" y="652" type="line"/>
      <point x="229" y="652" type="line"/>
      <point x="229" y="700" type="line"/>
      <point x="356" y="700" type="line"/>
      <point x="356" y="652" type="line"/>
      <point x="326" y="652" type="line"/>
      <point x="240" y="385" type="line"/>
      <point x="330" y="48" type="line"/>
      <point x="360" y="48" type="line"/>
    </contour>
  </outline>
</glyph>
<glyph name="Y" format="1">
  <advance width="374"/>
  <unicode hex="0059"/>
  <outline>
    <contour>
      <point x="369" y="652" type="line"/>
      <point x="337" y="652" type="line"/>
      <point x="249" y="274" type="line"/>
      <point x="249" y="48" type="line"/>
      <point x="279" y="48" type="line"/>
      <point x="279" y="0" type="line"/>
      <point x="95" y="0" type="line"/>
      <point x="95" y="48" type="line"/>
      <point x="125" y="48" type="line"/>
      <point x="125" y="269" type="line"/>
      <point x="37" y="652" type="line"/>
      <point x="5" y="652" type="line"/>
      <point x="5" y="700" type="line"/>
      <point x="159" y="700" type="line"/>
      <point x="221" y="403" type="line"/>
      <point x="272" y="652" type="line"/>
      <point x="236" y="652" type="line"/>
      <point x="236" y="700" type="line"/>
      <point x="369" y="700" type="line"/>
    </contour>
  </outline>
</glyph>
<glyph name="asciicircum" format="1">
  <advance width="340"/>
  <unicode hex="005E"/>
  <outline>
    <contour>
      <point x="320" y="501" type="line"/>
      <point x="219" y="501" type="line"/>
      <point x="170" y="585" type="line"/>
      <point x="121" y="501" type="line"/>
      <point x="20" y="501" type="line"/>
      <point x="20" y="527" type="line"/>
      <point x="134" y="700" type="line"/>
      <point x="206" y="700" type="line"/>
      <point x="320" y="527" type="line"/>
    </contour>
  </outline>
</glyph>
<glyph name="underscore" format="1">
  <advance width="300"/>
  <unicode hex="005F"/>
  <outline>
    <contour>
      <point x="300" y="-100" type="line"/>
      <point x="0" y="-100" type="line"/>
      <point x="0" y="-52" type="line"/>
      <point x="300" y="-52" type="line"/>
    </contour>
  </outline>
</glyph>
<glyph name="a" format="1">
  <advance width="359"/>
  <unicode hex="0061"/>
  <outline>
    <contour>
      <point x="349" y="0" type="line"/>
      <point x="199" y="0" type="line"/>
      <point x="199" y="31" type="line"/>
      <point x="168" y="10"/>
      <point x="131" y="-5"/>
      <point x="95" y="-5" type="curve" smooth="yes"/>
      <point x="53" y="-5"/>
      <point x="25" y="8"/>
      <point x="25" y="51" type="curve" smooth="yes"/>
      <point x="25" y="199" type="line" smooth="yes"/>
      <point x="25" y="242"/>
      <point x="53" y="255"/>
      <point x="95" y="255" type="curve" smooth="yes"/>
      <point x="199" y="255" type="line"/>
      <point x="199" y="409" type="line"/>
      <point x="191" y="411"/>
      <point x="183" y="412"/>
      <point x="174" y="412" type="curve" smooth="yes"/>
      <point x="165" y="412"/>
      <point x="156" y="411"/>
      <point x="148" y="409" type="curve"/>
      <point x="148" y="295" type="line"/>
      <point x="31" y="295" type="line"/>
      <point x="31" y="390" type="line" smooth="yes"/>
      <point x="31" y="445"/>
      <point x="77" y="465"/>
      <point x="174" y="465" type="curve" smooth="yes"/>
      <point x="270" y="465"/>
      <point x="319" y="445"/>
      <point x="319" y="390" type="curve" smooth="yes"/>
      <point x="319" y="48" type="line"/>
      <point x="349" y="48" type="line"/>
    </contour>
    <contour>
      <point x="199" y="76" type="curve"/>
      <point x="199" y="207" type="line"/>
      <point x="145" y="207" type="line"/>
      <point x="145" y="60" type="line"/>
      <point x="162" y="62"/>
      <point x="182" y="67"/>
    </contour>
  </outline>
</glyph>
<glyph name="b" format="1">
  <advance width="365"/>
  <unicode hex="0062"/>
  <outline>
    <contour>
      <point x="337" y="51" type="line" smooth="yes"/>
      <point x="337" y="8"/>
      <point x="309" y="-5"/>
      <point x="267" y="-5" type="curve" smooth="yes"/>
      <point x="231" y="-5"/>
      <point x="193" y="10"/>
      <point x="157" y="31" type="curve"/>
      <point x="157" y="0" type="line"/>
      <point x="7" y="0" type="line"/>
      <point x="7" y="48" type="line"/>
      <point x="37" y="48" type="line"/>
      <point x="37" y="652" type="line"/>
      <point x="7" y="652" type="line"/>
      <point x="7" y="700" type="line"/>
      <point x="157" y="700" type="line"/>
      <point x="157" y="429" type="line"/>
      <point x="193" y="450"/>
      <point x="231" y="465"/>
      <point x="267" y="465" type="curve" smooth="yes"/>
      <point x="309" y="465"/>
      <point x="337" y="452"/>
      <point x="337" y="409" type="curve" smooth="yes"/>
    </contour>
    <contour>
      <point x="217" y="62" type="curve"/>
      <point x="217" y="398" type="line"/>
      <point x="200" y="396"/>
      <point x="176" y="391"/>
      <point x="157" y="382" type="curve"/>
      <point x="157" y="78" type="line"/>
      <point x="176" y="69"/>
      <point x="200" y="64"/>
    </contour>
  </outline>
</glyph>
<glyph name="j" format="1">
  <advance width="195"/>
  <unicode hex="006A"/>
  <outline>
    <contour>
      <point x="165" y="525" type="line"/>
      <point x="45" y="525" type="line"/>
      <point x="45" y="652" type="line"/>
      <point x="165" y="652" type="line"/>
    </contour>
    <contour>
      <point x="165" y="-44" type="line" smooth="yes"/>
      <point x="165" y="-87"/>
      <point x="137" y="-100"/>
      <point x="95" y="-100" type="curve" smooth="yes"/>
      <point x="-5" y="-100" type="line"/>
      <point x="-5" y="-52" type="line"/>
      <point x="45" y="-52" type="line"/>
      <point x="45" y="412" type="line"/>
      <point x="15" y="412" type="line"/>
      <point x="15" y="460" type="line"/>
      <point x="165" y="460" type="line"/>
    </contour>
  </outline>
</glyph>
<glyph name="k" format="1">
  <advance width="376"/>
  <unicode hex="006B"/>
  <outline>
    <contour>
      <point x="375" y="0" type="line"/>
      <point x="240" y="0" type="line"/>
      <point x="165" y="207" type="line"/>
      <point x="165" y="48" type="line"/>
      <point x="195" y="48" type="line"/>
      <point x="195" y="0" type="line"/>
      <point x="15" y="0" type="line"/>
      <point x="15" y="48" type="line"/>
      <point x="45" y="48" type="line"/>
      <point x="45" y="652" type="line"/>
      <point x="15" y="652" type="line"/>
      <point x="15" y="700" type="line"/>
      <point x="165" y="700" type="line"/>
      <point x="165" y="275" type="line"/>
      <point x="262" y="412" type="line"/>
      <point x="234" y="412" type="line"/>
      <point x="234" y="460" type="line"/>
      <point x="360" y="460" type="line"/>
      <point x="360" y="412" type="line"/>
      <point x="330" y="412" type="line"/>
      <point x="251" y="302" type="line"/>
      <point x="345" y="48" type="line"/>
      <point x="375" y="48" type="line"/>
    </contour>
  </outline>
</glyph>
<glyph name="l" format="1">
  <advance width="205"/>
  <unicode hex="006C"/>
  <outline>
    <contour>
      <point x="195" y="0" type="line"/>
      <point x="15" y="0" type="line"/>
      <point x="15" y="48" type="line"/>
      <point x="45" y="48" type="line"/>
      <point x="45" y="652" type="line"/>
      <point x="15" y="652" type="line"/>
      <point x="15" y="700" type="line"/>
      <point x="165" y="700" type="line"/>
      <point x="165" y="48" type="line"/>
      <point x="195" y="48" type="line"/>
    </contour>
  </outline>
</glyph>
<glyph name="s" format="1">
  <advance width="346"/>
  <unicode hex="0073"/>
  <outline>
    <contour>
      <point x="321" y="70" type="line" smooth="yes"/>
      <point x="321" y="15"/>
      <point x="274" y="-5"/>
      <point x="173" y="-5" type="curve" smooth="yes"/>
      <point x="73" y="-5"/>
      <point x="25" y="15"/>
      <point x="25" y="70" type="curve" smooth="yes"/>
      <point x="25" y="165" type="line"/>
      <point x="145" y="165" type="line"/>
      <point x="145" y="51" type="line"/>
      <point x="153" y="49"/>
      <point x="163" y="48"/>
      <point x="173" y="48" type="curve" smooth="yes"/>
      <point x="183" y="48"/>
      <point x="193" y="49"/>
      <point x="201" y="51" type="curve"/>
      <point x="201" y="152" type="line"/>
      <point x="74" y="229" type="line" smooth="yes"/>
      <point x="44" y="247"/>
      <point x="25" y="264"/>
      <point x="25" y="299" type="curve" smooth="yes"/>
      <point x="25" y="390" type="line" smooth="yes"/>
      <point x="25" y="445"/>
      <point x="73" y="465"/>
      <point x="173" y="465" type="curve" smooth="yes"/>
      <point x="274" y="465"/>
      <point x="321" y="445"/>
      <point x="321" y="390" type="curve" smooth="yes"/>
      <point x="321" y="295" type="line"/>
      <point x="201" y="295" type="line"/>
      <point x="201" y="409" type="line"/>
      <point x="193" y="411"/>
      <point x="183" y="412"/>
      <point x="173" y="412" type="curve" smooth="yes"/>
      <point x="163" y="412"/>
      <point x="153" y="411"/>
      <point x="145" y="409" type="curve"/>
      <point x="145" y="306" type="line"/>
      <point x="272" y="232" type="line" smooth="yes"/>
      <point x="302" y="214"/>
      <point x="321" y="197"/>
      <point x="321" y="162" type="curve" smooth="yes"/>
    </contour>
  </outline>
</glyph>
<glyph name="u" format="1">
  <advance width="380"/>
  <unicode hex="0075"/>
  <outline>
    <contour>
      <point x="370" y="0" type="line"/>
      <point x="220" y="0" type="line"/>
      <point x="220" y="31" type="line"/>
      <point x="184" y="10"/>
      <point x="146" y="-5"/>
      <point x="110" y="-5" type="curve" smooth="yes"/>
      <point x="68" y="-5"/>
      <point x="40" y="8"/>
      <point x="40" y="51" type="curve" smooth="yes"/>
      <point x="40" y="412" type="line"/>
      <point x="10" y="412" type="line"/>
      <point x="10" y="460" type="line"/>
      <point x="160" y="460" type="line"/>
      <point x="160" y="62" type="line"/>
      <point x="177" y="64"/>
      <point x="201" y="69"/>
      <point x="220" y="78" type="curve"/>
      <point x="220" y="412" type="line"/>
      <point x="190" y="412" type="line"/>
      <point x="190" y="460" type="line"/>
      <point x="340" y="460" type="line"/>
      <point x="340" y="48" type="line"/>
      <point x="370" y="48" type="line"/>
    </contour>
  </outline>
</glyph>
<glyph name="w" format="1">
  <advance width="480"/>
  <unicode hex="0077"/>
  <outline>
    <contour>
      <point x="475" y="412" type="line"/>
      <point x="443" y="412" type="line"/>
      <point x="385" y="0" type="line"/>
      <point x="265" y="0" type="line"/>
      <point x="239" y="184" type="line"/>
      <point x="215" y="0" type="line"/>
      <point x="95" y="0" type="line"/>
      <point x="37" y="412" type="line"/>
      <point x="5" y="412" type="line"/>
      <point x="5" y="460" type="line"/>
      <point x="140" y="460" type="line"/>
      <point x="184" y="119" type="line"/>
      <point x="216" y="347" type="line"/>
      <point x="207" y="412" type="line"/>
      <point x="180" y="412" type="line"/>
      <point x="180" y="460" type="line"/>
      <point x="310" y="460" type="line"/>
      <point x="354" y="119" type="line"/>
      <point x="386" y="412" type="line"/>
      <point x="353" y="412" type="line"/>
      <point x="353" y="460" type="line"/>
      <point x="475" y="460" type="line"/>
    </contour>
  </outline>
</glyph>
<glyph name="z" format="1">
  <advance width="339"/>
  <unicode hex="007A"/>
  <outline>
    <contour>
      <point x="322" y="0" type="line"/>
      <point x="17" y="0" type="line"/>
      <point x="17" y="48" type="line"/>
      <point x="192" y="412" type="line"/>
      <point x="123" y="412" type="line"/>
      <point x="123" y="295" type="line"/>
      <point x="22" y="295" type="line"/>
      <point x="22" y="460" type="line"/>
      <point x="322" y="460" type="line"/>
      <point x="322" y="412" type="line"/>
      <point x="147" y="48" type="line"/>
      <point x="221" y="48" type="line"/>
      <point x="221" y="165" type="line"/>
      <point x="322" y="165" type="line"/>
    </contour>
  </outline>
</glyph>
<glyph name="braceleft" format="1">
  <advance width="235"/>
  <unicode hex="007B"/>
  <outline>
    <contour>
      <point x="220" y="0" type="line"/>
      <point x="120" y="0" type="line" smooth="yes"/>
      <point x="78" y="0"/>
      <point x="50" y="13"/>
      <point x="50" y="56" type="curve" smooth="yes"/>
      <point x="50" y="326" type="line"/>
      <point x="42" y="328"/>
      <point x="32" y="329"/>
      <point x="17" y="329" type="curve" smooth="yes"/>
      <point x="0" y="329" type="line"/>
      <point x="0" y="377" type="line"/>
      <point x="17" y="377" type="line" smooth="yes"/>
      <point x="32" y="377"/>
      <point x="42" y="378"/>
      <point x="50" y="380" type="curve"/>
      <point x="50" y="644" type="line" smooth="yes"/>
      <point x="50" y="687"/>
      <point x="78" y="700"/>
      <point x="120" y="700" type="curve" smooth="yes"/>
      <point x="220" y="700" type="line"/>
      <point x="220" y="652" type="line"/>
      <point x="170" y="652" type="line"/>
      <point x="170" y="426" type="line" smooth="yes"/>
      <point x="170" y="380"/>
      <point x="149" y="363"/>
      <point x="110" y="353" type="curve"/>
      <point x="149" y="343"/>
      <point x="170" y="326"/>
      <point x="170" y="280" type="curve" smooth="yes"/>
      <point x="170" y="48" type="line"/>
      <point x="220" y="48" type="line"/>
    </contour>
  </outline>
</glyph>
<glyph name="braceright" format="1">
  <advance width="235"/>
  <unicode hex="007D"/>
  <outline>
    <contour>
      <point x="235" y="329" type="line"/>
      <point x="218" y="329" type="line" smooth="yes"/>
      <point x="203" y="329"/>
      <point x="193" y="328"/>
      <point x="185" y="326" type="curve"/>
      <point x="185" y="56" type="line" smooth="yes"/>
      <point x="185" y="13"/>
      <point x="157" y="0"/>
      <point x="115" y="0" type="curve" smooth="yes"/>
      <point x="15" y="0" type="line"/>
      <point x="15" y="48" type="line"/>
      <point x="65" y="48" type="line"/>
      <point x="65" y="280" type="line" smooth="yes"/>
      <point x="65" y="326"/>
      <point x="86" y="343"/>
      <point x="125" y="353" type="curve"/>
      <point x="86" y="363"/>
      <point x="65" y="380"/>
      <point x="65" y="426" type="curve" smooth="yes"/>
      <point x="65" y="652" type="line"/>
      <point x="15" y="652" type="line"/>
      <point x="15" y="700" type="line"/>
      <point x="115" y="700" type="line" smooth="yes"/>
      <point x="157" y="700"/>
      <point x="185" y="687"/>
      <point x="185" y="644" type="curve" smooth="yes"/>
      <point x="185" y="380" type="line"/>
      <point x="193" y="378"/>
      <point x="203" y="377"/>
      <point x="218" y="377" type="curve" smooth="yes"/>
      <point x="235" y="377" type="line"/>
    </contour>
  </outline>
</glyph>
<glyph name="sterling" format="1">
  <advance width="391"/>
  <unicode hex="00A3"/>
  <outline>
    <contour>
      <point x="361" y="0" type="line"/>
      <point x="17" y="0" type="line"/>
      <point x="17" y="48" type="line"/>
      <point x="47" y="48" type="line"/>
      <point x="47" y="329" type="line"/>
      <point x="17" y="329" type="line"/>
      <point x="17" y="377" type="line"/>
      <point x="47" y="377" type="line"/>
      <point x="47" y="630" type="line" smooth="yes"/>
      <point x="47" y="685"/>
      <point x="104" y="705"/>
      <point x="204" y="705" type="curve" smooth="yes"/>
      <point x="305" y="705"/>
      <point x="361" y="685"/>
      <point x="361" y="630" type="curve" smooth="yes"/>
      <point x="361" y="460" type="line"/>
      <point x="239" y="460" type="line"/>
      <point x="239" y="649" type="line"/>
      <point x="231" y="651"/>
      <point x="214" y="652"/>
      <point x="204" y="652" type="curve" smooth="yes"/>
      <point x="194" y="652"/>
      <point x="177" y="651"/>
      <point x="169" y="649" type="curve"/>
      <point x="169" y="377" type="line"/>
      <point x="281" y="377" type="line"/>
      <point x="281" y="329" type="line"/>
      <point x="169" y="329" type="line"/>
      <point x="169" y="48" type="line"/>
      <point x="239" y="48" type="line"/>
      <point x="239" y="240" type="line"/>
      <point x="361" y="240" type="line"/>
    </contour>
  </outline>
</glyph>
<glyph name="dieresis" format="1">
  <advance width="300"/>
  <unicode hex="00A8"/>
  <outline>
    <contour>
      <point x="267" y="491" type="line"/>
      <point x="167" y="491" type="line"/>
      <point x="167" y="622" type="line"/>
      <point x="267" y="622" type="line"/>
    </contour>
    <contour>
      <point x="133" y="491" type="line"/>
      <point x="33" y="491" type="line"/>
      <point x="33" y="622" type="line"/>
      <point x="133" y="622" type="line"/>
    </contour>
  </outline>
</glyph>
<glyph name="ordfeminine" format="1">
  <advance width="290"/>
  <unicode hex="00AA"/>
  <outline>
    <contour>
      <point x="279" y="333" type="line"/>
      <point x="159" y="333" type="line"/>
      <point x="159" y="358" type="line"/>
      <point x="134" y="341"/>
      <point x="108" y="329"/>
      <point x="79" y="329" type="curve" smooth="yes"/>
      <point x="45" y="329"/>
      <point x="20" y="339"/>
      <point x="20" y="374" type="curve" smooth="yes"/>
      <point x="20" y="492" type="line" smooth="yes"/>
      <point x="20" y="527"/>
      <point x="45" y="537"/>
      <point x="79" y="537" type="curve" smooth="yes"/>
      <point x="159" y="537" type="line"/>
      <point x="159" y="660" type="line"/>
      <point x="153" y="662"/>
      <point x="148" y="662"/>
      <point x="141" y="662" type="curve" smooth="yes"/>
      <point x="134" y="662"/>
      <point x="129" y="662"/>
      <point x="122" y="660" type="curve"/>
      <point x="122" y="569" type="line"/>
      <point x="22" y="569" type="line"/>
      <point x="22" y="645" type="line" smooth="yes"/>
      <point x="22" y="689"/>
      <point x="64" y="705"/>
      <point x="141" y="705" type="curve" smooth="yes"/>
      <point x="218" y="705"/>
      <point x="259" y="689"/>
      <point x="259" y="645" type="curve" smooth="yes"/>
      <point x="259" y="371" type="line"/>
      <point x="279" y="371" type="line"/>
    </contour>
    <contour>
      <point x="276" y="251" type="line"/>
      <point x="25" y="251" type="line"/>
      <point x="25" y="295" type="line"/>
      <point x="276" y="295" type="line"/>
    </contour>
    <contour>
      <point x="159" y="394" type="curve"/>
      <point x="159" y="499" type="line"/>
      <point x="120" y="499" type="line"/>
      <point x="120" y="382" type="line"/>
      <point x="134" y="383"/>
      <point x="147" y="387"/>
    </contour>
  </outline>
</glyph>
<glyph name="macron" format="1">
  <advance width="300"/>
  <unicode hex="00AF"/>
  <unicode hex="02C9"/>
  <outline>
    <contour>
      <point x="255" y="501" type="line"/>
      <point x="45" y="501" type="line"/>
      <point x="45" y="559" type="line"/>
      <point x="255" y="559" type="line"/>
    </contour>
  </outline>
</glyph>
<glyph name="degree" format="1">
  <advance width="282"/>
  <unicode hex="00B0"/>
  <outline>
    <contour>
      <point x="262" y="393" type="line" smooth="yes"/>
      <point x="262" y="344"/>
      <point x="218" y="323"/>
      <point x="141" y="323" type="curve" smooth="yes"/>
      <point x="65" y="323"/>
      <point x="20" y="344"/>
      <point x="20" y="393" type="curve" smooth="yes"/>
      <point x="20" y="635" type="line" smooth="yes"/>
      <point x="20" y="684"/>
      <point x="65" y="705"/>
      <point x="141" y="705" type="curve" smooth="yes"/>
      <point x="218" y="705"/>
      <point x="262" y="684"/>
      <point x="262" y="635" type="curve" smooth="yes"/>
    </contour>
    <contour>
      <point x="162" y="373" type="curve"/>
      <point x="162" y="655" type="line"/>
      <point x="154" y="657"/>
      <point x="147" y="657"/>
      <point x="141" y="657" type="curve" smooth="yes"/>
      <point x="135" y="657"/>
      <point x="128" y="657"/>
      <point x="120" y="655" type="curve"/>
      <point x="120" y="373" type="line"/>
      <point x="128" y="371"/>
      <point x="135" y="371"/>
      <point x="141" y="371" type="curve" smooth="yes"/>
      <point x="147" y="371"/>
      <point x="154" y="371"/>
    </contour>
  </outline>
</glyph>
<glyph name="acute" format="1">
  <advance width="300"/>
  <unicode hex="00B4"/>
  <outline>
    <contour>
      <point x="238" y="622" type="line"/>
      <point x="168" y="491" type="line"/>
      <point x="62" y="491" type="line"/>
      <point x="132" y="622" type="line"/>
    </contour>
  </outline>
</glyph>
<glyph name="periodcentered" format="1">
  <advance width="190"/>
  <unicode hex="00B7"/>
  <unicode hex="2219"/>
  <outline>
    <contour>
      <point x="155" y="285" type="line"/>
      <point x="35" y="285" type="line"/>
      <point x="35" y="422" type="line"/>
      <point x="155" y="422" type="line"/>
    </contour>
  </outline>
</glyph>
<glyph name="cedilla" format="1">
  <advance width="300"/>
  <unicode hex="00B8"/>
  <outline>
    <contour>
      <point x="205" y="-44" type="line" smooth="yes"/>
      <point x="205" y="-87"/>
      <point x="177" y="-100"/>
      <point x="135" y="-100" type="curve" smooth="yes"/>
      <point x="60" y="-100" type="line"/>
      <point x="60" y="-52" type="line"/>
      <point x="95" y="-52" type="line"/>
      <point x="95" y="43" type="line"/>
      <point x="205" y="43" type="line"/>
    </contour>
  </outline>
</glyph>
<glyph name="guillemotright" format="1">
  <advance width="420"/>
  <unicode hex="00BB"/>
  <outline>
    <contour>
      <point x="410" y="230" type="line"/>
      <point x="331" y="0" type="line"/>
      <point x="195" y="0" type="line"/>
      <point x="277" y="230" type="line"/>
      <point x="195" y="460" type="line"/>
      <point x="331" y="460" type="line"/>
    </contour>
    <contour>
      <point x="230" y="230" type="line"/>
      <point x="151" y="0" type="line"/>
      <point x="15" y="0" type="line"/>
      <point x="97" y="230" type="line"/>
      <point x="15" y="460" type="line"/>
      <point x="151" y="460" type="line"/>
    </contour>
  </outline>
</glyph>
<glyph name="AE" format="1">
  <advance width="544"/>
  <unicode hex="00C6"/>
  <outline>
    <contour>
      <point x="510" y="0" type="line"/>
      <point x="202" y="0" type="line"/>
      <point x="202" y="129" type="line"/>
      <point x="110" y="129" type="line"/>
      <point x="96" y="48" type="line"/>
      <point x="132" y="48" type="line"/>
      <point x="132" y="0" type="line"/>
      <point x="0" y="0" type="line"/>
      <point x="0" y="48" type="line"/>
      <point x="32" y="48" type="line"/>
      <point x="141" y="652" type="line"/>
      <point x="104" y="652" type="line"/>
      <point x="104" y="700" type="line"/>
      <point x="510" y="700" type="line"/>
      <point x="510" y="460" type="line"/>
      <point x="386" y="460" type="line"/>
      <point x="386" y="652" type="line"/>
      <point x="326" y="652" type="line"/>
      <point x="326" y="377" type="line"/>
      <point x="436" y="377" type="line"/>
      <point x="436" y="329" type="line"/>
      <point x="326" y="329" type="line"/>
      <point x="326" y="48" type="line"/>
      <point x="386" y="48" type="line"/>
      <point x="386" y="240" type="line"/>
      <point x="510" y="240" type="line"/>
    </contour>
    <contour>
      <point x="202" y="177" type="line"/>
      <point x="202" y="657" type="line"/>
      <point x="119" y="177" type="line"/>
    </contour>
  </outline>
</glyph>
<glyph name="Oslash" format="1">
  <advance width="384"/>
  <unicode hex="00D8"/>
  <outline>
    <contour>
      <point x="354" y="70" type="line" smooth="yes"/>
      <point x="354" y="15"/>
      <point x="299" y="-5"/>
      <point x="192" y="-5" type="curve" smooth="yes"/>
      <point x="177" y="-5"/>
      <point x="162" y="-5"/>
      <point x="149" y="-4" type="curve"/>
      <point x="127" y="-67" type="line"/>
      <point x="57" y="-67" type="line"/>
      <point x="83" y="8" type="line"/>
      <point x="48" y="19"/>
      <point x="30" y="39"/>
      <point x="30" y="70" type="curve" smooth="yes"/>
      <point x="30" y="630" type="line" smooth="yes"/>
      <point x="30" y="685"/>
      <point x="86" y="705"/>
      <point x="192" y="705" type="curve" smooth="yes"/>
      <point x="208" y="705"/>
      <point x="222" y="705"/>
      <point x="235" y="704" type="curve"/>
      <point x="257" y="767" type="line"/>
      <point x="327" y="767" type="line"/>
      <point x="301" y="692" type="line"/>
      <point x="336" y="681"/>
      <point x="354" y="661"/>
      <point x="354" y="630" type="curve" smooth="yes"/>
    </contour>
    <contour>
      <point x="230" y="51" type="curve"/>
      <point x="230" y="649" type="line"/>
      <point x="222" y="651"/>
      <point x="203" y="652"/>
      <point x="192" y="652" type="curve" smooth="yes"/>
      <point x="181" y="652"/>
      <point x="162" y="651"/>
      <point x="154" y="649" type="curve"/>
      <point x="154" y="51" type="line"/>
      <point x="162" y="49"/>
      <point x="181" y="48"/>
      <point x="192" y="48" type="curve" smooth="yes"/>
      <point x="203" y="48"/>
      <point x="222" y="49"/>
    </contour>
  </outline>
</glyph>
<glyph name="germandbls" format="1">
  <advance width="361"/>
  <unicode hex="00DF"/>
  <outline>
    <contour>
      <point x="336" y="75" type="line" smooth="yes"/>
      <point x="336" y="20"/>
      <point x="285" y="0"/>
      <point x="184" y="0" type="curve" smooth="yes"/>
      <point x="180" y="0" type="line"/>
      <point x="180" y="48" type="line"/>
      <point x="183" y="48" type="line" smooth="yes"/>
      <point x="198" y="48"/>
      <point x="208" y="49"/>
      <point x="216" y="51" type="curve"/>
      <point x="216" y="326" type="line"/>
      <point x="208" y="328"/>
      <point x="198" y="329"/>
      <point x="183" y="329" type="curve" smooth="yes"/>
      <point x="180" y="329" type="line"/>
      <point x="180" y="377" type="line"/>
      <point x="183" y="377" type="line" smooth="yes"/>
      <point x="198" y="377"/>
      <point x="208" y="378"/>
      <point x="216" y="380" type="curve"/>
      <point x="216" y="649" type="line"/>
      <point x="208" y="651"/>
      <point x="193" y="652"/>
      <point x="183" y="652" type="curve" smooth="yes"/>
      <point x="173" y="652"/>
      <point x="158" y="651"/>
      <point x="150" y="649" type="curve"/>
      <point x="150" y="-52" type="line"/>
      <point x="180" y="-52" type="line"/>
      <point x="180" y="-100" type="line"/>
      <point x="0" y="-100" type="line"/>
      <point x="0" y="-52" type="line"/>
      <point x="30" y="-52" type="line"/>
      <point x="30" y="630" type="line" smooth="yes"/>
      <point x="30" y="685"/>
      <point x="83" y="705"/>
      <point x="183" y="705" type="curve" smooth="yes"/>
      <point x="284" y="705"/>
      <point x="336" y="685"/>
      <point x="336" y="630" type="curve" smooth="yes"/>
      <point x="336" y="426" type="line" smooth="yes"/>
      <point x="336" y="380"/>
      <point x="315" y="363"/>
      <point x="276" y="353" type="curve"/>
      <point x="315" y="343"/>
      <point x="336" y="326"/>
      <point x="336" y="280" type="curve" smooth="yes"/>
    </contour>
  </outline>
</glyph>
<glyph name="oslash" format="1">
  <advance width="356"/>
  <unicode hex="00F8"/>
  <outline>
    <contour>
      <point x="331" y="70" type="line" smooth="yes"/>
      <point x="331" y="15"/>
      <point x="279" y="-5"/>
      <point x="178" y="-5" type="curve" smooth="yes"/>
      <point x="168" y="-5"/>
      <point x="158" y="-5"/>
      <point x="148" y="-4" type="curve"/>
      <point x="127" y="-67" type="line"/>
      <point x="57" y="-67" type="line"/>
      <point x="82" y="5" type="line"/>
      <point x="45" y="16"/>
      <point x="25" y="37"/>
      <point x="25" y="70" type="curve" smooth="yes"/>
      <point x="25" y="390" type="line" smooth="yes"/>
      <point x="25" y="445"/>
      <point x="78" y="465"/>
      <point x="178" y="465" type="curve" smooth="yes"/>
      <point x="188" y="465"/>
      <point x="198" y="465"/>
      <point x="207" y="464" type="curve"/>
      <point x="229" y="527" type="line"/>
      <point x="299" y="527" type="line"/>
      <point x="274" y="455" type="line"/>
      <point x="312" y="444"/>
      <point x="331" y="423"/>
      <point x="331" y="390" type="curve" smooth="yes"/>
    </contour>
    <contour>
      <point x="211" y="51" type="curve"/>
      <point x="211" y="409" type="line"/>
      <point x="203" y="411"/>
      <point x="188" y="412"/>
      <point x="178" y="412" type="curve" smooth="yes"/>
      <point x="168" y="412"/>
      <point x="153" y="411"/>
      <point x="145" y="409" type="curve"/>
      <point x="145" y="51" type="line"/>
      <point x="153" y="49"/>
      <point x="168" y="48"/>
      <point x="178" y="48" type="curve" smooth="yes"/>
      <point x="188" y="48"/>
      <point x="203" y="49"/>
    </contour>
  </outline>
</glyph>
<glyph name="dotlessi" format="1">
  <advance width="210"/>
  <unicode hex="0131"/>
  <outline>
    <contour>
      <point x="200" y="0" type="line"/>
      <point x="20" y="0" type="line"/>
      <point x="20" y="48" type="line"/>
      <point x="50" y="48" type="line"/>
      <point x="50" y="412" type="line"/>
      <point x="20" y="412" type="line"/>
      <point x="20" y="460" type="line"/>
      <point x="170" y="460" type="line"/>
      <point x="170" y="48" type="line"/>
      <point x="200" y="48" type="line"/>
    </contour>
  </outline>
</glyph>
<glyph name="OE" format="1">
  <advance width="572"/>
  <unicode hex="0152"/>
  <outline>
    <contour>
      <point x="538" y="0" type="line"/>
      <point x="192" y="0" type="line" smooth="yes"/>
      <point x="86" y="0"/>
      <point x="30" y="15"/>
      <point x="30" y="70" type="curve" smooth="yes"/>
      <point x="30" y="630" type="line" smooth="yes"/>
      <point x="30" y="685"/>
      <point x="86" y="700"/>
      <point x="192" y="700" type="curve" smooth="yes"/>
      <point x="538" y="700" type="line"/>
      <point x="538" y="460" type="line"/>
      <point x="414" y="460" type="line"/>
      <point x="414" y="652" type="line"/>
      <point x="354" y="652" type="line"/>
      <point x="354" y="377" type="line"/>
      <point x="464" y="377" type="line"/>
      <point x="464" y="329" type="line"/>
      <point x="354" y="329" type="line"/>
      <point x="354" y="48" type="line"/>
      <point x="414" y="48" type="line"/>
      <point x="414" y="240" type="line"/>
      <point x="538" y="240" type="line"/>
    </contour>
    <contour>
      <point x="230" y="48" type="line"/>
      <point x="230" y="652" type="line"/>
      <point x="192" y="652" type="line" smooth="yes"/>
      <point x="179" y="652"/>
      <point x="162" y="651"/>
      <point x="154" y="649" type="curve"/>
      <point x="154" y="51" type="line"/>
      <point x="162" y="49"/>
      <point x="175" y="48"/>
      <point x="192" y="48" type="curve" smooth="yes"/>
    </contour>
  </outline>
</glyph>
<glyph name="oe" format="1">
  <advance width="542"/>
  <unicode hex="0153"/>
  <outline>
    <contour>
      <point x="517" y="70" type="line" smooth="yes"/>
      <point x="517" y="15"/>
      <point x="465" y="-5"/>
      <point x="364" y="-5" type="curve" smooth="yes"/>
      <point x="326" y="-5"/>
      <point x="295" y="-2"/>
      <point x="271" y="4" type="curve"/>
      <point x="247" y="-2"/>
      <point x="216" y="-5"/>
      <point x="178" y="-5" type="curve" smooth="yes"/>
      <point x="78" y="-5"/>
      <point x="25" y="15"/>
      <point x="25" y="70" type="curve" smooth="yes"/>
      <point x="25" y="390" type="line" smooth="yes"/>
      <point x="25" y="445"/>
      <point x="78" y="465"/>
      <point x="178" y="465" type="curve" smooth="yes"/>
      <point x="216" y="465"/>
      <point x="247" y="462"/>
      <point x="271" y="456" type="curve"/>
      <point x="295" y="462"/>
      <point x="326" y="465"/>
      <point x="364" y="465" type="curve" smooth="yes"/>
      <point x="465" y="465"/>
      <point x="517" y="445"/>
      <point x="517" y="390" type="curve" smooth="yes"/>
      <point x="517" y="211" type="line"/>
      <point x="331" y="211" type="line"/>
      <point x="331" y="51" type="line"/>
      <point x="339" y="49"/>
      <point x="354" y="48"/>
      <point x="364" y="48" type="curve" smooth="yes"/>
      <point x="374" y="48"/>
      <point x="389" y="49"/>
      <point x="397" y="51" type="curve"/>
      <point x="397" y="165" type="line"/>
      <point x="517" y="165" type="line"/>
    </contour>
    <contour>
      <point x="397" y="259" type="line"/>
      <point x="397" y="409" type="line"/>
      <point x="389" y="411"/>
      <point x="374" y="412"/>
      <point x="364" y="412" type="curve" smooth="yes"/>
      <point x="354" y="412"/>
      <point x="339" y="411"/>
      <point x="331" y="409" type="curve"/>
      <point x="331" y="259" type="line"/>
    </contour>
    <contour>
      <point x="211" y="51" type="curve"/>
      <point x="211" y="409" type="line"/>
      <point x="203" y="411"/>
      <point x="188" y="412"/>
      <point x="178" y="412" type="curve" smooth="yes"/>
      <point x="168" y="412"/>
      <point x="153" y="411"/>
      <point x="145" y="409" type="curve"/>
      <point x="145" y="51" type="line"/>
      <point x="153" y="49"/>
      <point x="168" y="48"/>
      <point x="178" y="48" type="curve" smooth="yes"/>
      <point x="188" y="48"/>
      <point x="203" y="49"/>
    </contour>
  </outline>
</glyph>
<glyph name="florin" format="1">
  <advance width="230"/>
  <unicode hex="0192"/>
  <outline>
    <contour>
      <point x="216" y="652" type="line"/>
      <point x="166" y="652" type="line"/>
      <point x="166" y="460" type="line"/>
      <point x="206" y="460" type="line"/>
      <point x="206" y="412" type="line"/>
      <point x="166" y="412" type="line"/>
      <point x="166" y="-44" type="line" smooth="yes"/>
      <point x="166" y="-87"/>
      <point x="136" y="-100"/>
      <point x="94" y="-100" type="curve" smooth="yes"/>
      <point x="14" y="-100" type="line"/>
      <point x="14" y="-52" type="line"/>
      <point x="44" y="-52" type="line"/>
      <point x="44" y="412" type="line"/>
      <point x="14" y="412" type="line"/>
      <point x="14" y="460" type="line"/>
      <point x="44" y="460" type="line"/>
      <point x="44" y="644" type="line" smooth="yes"/>
      <point x="44" y="687"/>
      <point x="74" y="700"/>
      <point x="116" y="700" type="curve" smooth="yes"/>
      <point x="216" y="700" type="line"/>
    </contour>
  </outline>
</glyph>
<glyph name="circumflex" format="1">
  <advance width="300"/>
  <unicode hex="02C6"/>
  <outline>
    <contour>
      <point x="280" y="491" type="line"/>
      <point x="192" y="491" type="line"/>
      <point x="150" y="535" type="line"/>
      <point x="108" y="491" type="line"/>
      <point x="20" y="491" type="line"/>
      <point x="20" y="524" type="line"/>
      <point x="117" y="622" type="line"/>
      <point x="183" y="622" type="line"/>
      <point x="280" y="524" type="line"/>
    </contour>
  </outline>
</glyph>
<glyph name="caron" format="1">
  <advance width="300"/>
  <unicode hex="02C7"/>
  <outline>
    <contour>
      <point x="280" y="589" type="line"/>
      <point x="183" y="491" type="line"/>
      <point x="117" y="491" type="line"/>
      <point x="20" y="589" type="line"/>
      <point x="20" y="622" type="line"/>
      <point x="108" y="622" type="line"/>
      <point x="150" y="578" type="line"/>
      <point x="192" y="622" type="line"/>
      <point x="280" y="622" type="line"/>
    </contour>
  </outline>
</glyph>
<glyph name="breve" format="1">
  <advance width="300"/>
  <unicode hex="02D8"/>
  <outline>
    <contour>
      <point x="276" y="569" type="line" smooth="yes"/>
      <point x="276" y="514"/>
      <point x="224" y="491"/>
      <point x="159" y="491" type="curve" smooth="yes"/>
      <point x="141" y="491" type="line" smooth="yes"/>
      <point x="76" y="491"/>
      <point x="24" y="514"/>
      <point x="24" y="569" type="curve" smooth="yes"/>
      <point x="24" y="622" type="line"/>
      <point x="117" y="622" type="line"/>
      <point x="117" y="591" type="line" smooth="yes"/>
      <point x="117" y="576"/>
      <point x="125" y="569"/>
      <point x="136" y="569" type="curve" smooth="yes"/>
      <point x="164" y="569" type="line" smooth="yes"/>
      <point x="175" y="569"/>
      <point x="183" y="576"/>
      <point x="183" y="591" type="curve" smooth="yes"/>
      <point x="183" y="622" type="line"/>
      <point x="276" y="622" type="line"/>
    </contour>
  </outline>
</glyph>
<glyph name="tilde" format="1">
  <advance width="300"/>
  <unicode hex="02DC"/>
  <outline>
    <contour>
      <point x="267" y="548" type="line" smooth="yes"/>
      <point x="267" y="507"/>
      <point x="249" y="490"/>
      <point x="218" y="490" type="curve" smooth="yes"/>
      <point x="208" y="490"/>
      <point x="196" y="493"/>
      <point x="184" y="497" type="curve" smooth="yes"/>
      <point x="78" y="535" type="line"/>
      <point x="78" y="491" type="line"/>
      <point x="33" y="491" type="line"/>
      <point x="33" y="565" type="line" smooth="yes"/>
      <point x="33" y="606"/>
      <point x="51" y="623"/>
      <point x="82" y="623" type="curve" smooth="yes"/>
      <point x="92" y="623"/>
      <point x="104" y="620"/>
      <point x="116" y="616" type="curve" smooth="yes"/>
      <point x="222" y="578" type="line"/>
      <point x="222" y="622" type="line"/>
      <point x="267" y="622" type="line"/>
    </contour>
  </outline>
</glyph>
<glyph name="hungarumlaut" format="1">
  <advance width="300"/>
  <unicode hex="02DD"/>
  <outline>
    <contour>
      <point x="308" y="622" type="line"/>
      <point x="238" y="491" type="line"/>
      <point x="128" y="491" type="line"/>
      <point x="198" y="622" type="line"/>
    </contour>
    <contour>
      <point x="172" y="622" type="line"/>
      <point x="102" y="491" type="line"/>
      <point x="-8" y="491" type="line"/>
      <point x="62" y="622" type="line"/>
    </contour>
  </outline>
</glyph>
<glyph name="quoteleft" format="1">
  <advance width="190"/>
  <unicode hex="2018"/>
  <unicode hex="02BB"/>
  <outline>
    <contour>
      <point x="176" y="460" type="line"/>
      <point x="56" y="460" type="line"/>
      <point x="26" y="700" type="line"/>
      <point x="146" y="700" type="line"/>
    </contour>
  </outline>
</glyph>
<glyph name="quoteright" format="1">
  <advance width="190"/>
  <unicode hex="2019"/>
  <unicode hex="02BC"/>
  <outline>
    <contour>
      <point x="164" y="700" type="line"/>
      <point x="134" y="460" type="line"/>
      <point x="14" y="460" type="line"/>
      <point x="44" y="700" type="line"/>
    </contour>
  </outline>
</glyph>
<glyph name="quotedblleft" format="1">
  <advance width="350"/>
  <unicode hex="201C"/>
  <outline>
    <contour>
      <point x="336" y="460" type="line"/>
      <point x="216" y="460" type="line"/>
      <point x="186" y="700" type="line"/>
      <point x="306" y="700" type="line"/>
    </contour>
    <contour>
      <point x="176" y="460" type="line"/>
      <point x="56" y="460" type="line"/>
      <point x="26" y="700" type="line"/>
      <point x="146" y="700" type="line"/>
    </contour>
  </outline>
</glyph>
<glyph name="quotedblright" format="1">
  <advance width="350"/>
  <unicode hex="201D"/>
  <outline>
    <contour>
      <point x="324" y="700" type="line"/>
      <point x="294" y="460" type="line"/>
      <point x="174" y="460" type="line"/>
      <point x="204" y="700" type="line"/>
    </contour>
    <contour>
      <point x="164" y="700" type="line"/>
      <point x="134" y="460" type="line"/>
      <point x="14" y="460" type="line"/>
      <point x="44" y="700" type="line"/>
    </contour>
  </outline>
</glyph>
<glyph name="quotedblbase" format="1">
  <advance width="350"/>
  <unicode hex="201E"/>
  <outline>
    <contour>
      <point x="328" y="137" type="line"/>
      <point x="298" y="-100" type="line"/>
      <point x="178" y="-100" type="line"/>
      <point x="208" y="137" type="line"/>
    </contour>
    <contour>
      <point x="168" y="137" type="line"/>
      <point x="138" y="-100" type="line"/>
      <point x="18" y="-100" type="line"/>
      <point x="48" y="137" type="line"/>
    </contour>
  </outline>
</glyph>
<glyph name="bullet" format="1">
  <advance width="300"/>
  <unicode hex="2022"/>
  <outline>
    <contour>
      <point x="270" y="265" type="line" smooth="yes"/>
      <point x="270" y="221"/>
      <point x="232" y="205"/>
      <point x="150" y="205" type="curve" smooth="yes"/>
      <point x="69" y="205"/>
      <point x="30" y="221"/>
      <point x="30" y="265" type="curve" smooth="yes"/>
      <point x="30" y="441" type="line" smooth="yes"/>
      <point x="30" y="485"/>
      <point x="69" y="501"/>
      <point x="150" y="501" type="curve" smooth="yes"/>
      <point x="232" y="501"/>
      <point x="270" y="485"/>
      <point x="270" y="441" type="curve" smooth="yes"/>
    </contour>
  </outline>
</glyph>
<glyph name="ellipsis" format="1">
  <advance width="540"/>
  <unicode hex="2026"/>
  <outline>
    <contour>
      <point x="505" y="0" type="line"/>
      <point x="385" y="0" type="line"/>
      <point x="385" y="137" type="line"/>
      <point x="505" y="137" type="line"/>
    </contour>
    <contour>
      <point x="330" y="0" type="line"/>
      <point x="210" y="0" type="line"/>
      <point x="210" y="137" type="line"/>
      <point x="330" y="137" type="line"/>
    </contour>
    <contour>
      <point x="155" y="0" type="line"/>
      <point x="35" y="0" type="line"/>
      <point x="35" y="137" type="line"/>
      <point x="155" y="137" type="line"/>
    </contour>
  </outline>
</glyph>
<glyph name="perthousand" format="1">
  <advance width="884"/>
  <unicode hex="2030"/>
  <outline>
    <contour>
      <point x="262" y="393" type="line" smooth="yes"/>
      <point x="262" y="344"/>
      <point x="218" y="323"/>
      <point x="141" y="323" type="curve" smooth="yes"/>
      <point x="65" y="323"/>
      <point x="20" y="344"/>
      <point x="20" y="393" type="curve" smooth="yes"/>
      <point x="20" y="635" type="line" smooth="yes"/>
      <point x="20" y="684"/>
      <point x="65" y="705"/>
      <point x="141" y="705" type="curve" smooth="yes"/>
      <point x="218" y="705"/>
      <point x="262" y="684"/>
      <point x="262" y="635" type="curve" smooth="yes"/>
    </contour>
    <contour>
      <point x="446" y="700" type="line"/>
      <point x="215" y="0" type="line"/>
      <point x="161" y="0" type="line"/>
      <point x="392" y="700" type="line"/>
    </contour>
    <contour>
      <point x="864" y="65" type="line" smooth="yes"/>
      <point x="864" y="16"/>
      <point x="820" y="-5"/>
      <point x="743" y="-5" type="curve" smooth="yes"/>
      <point x="667" y="-5"/>
      <point x="622" y="16"/>
      <point x="622" y="65" type="curve" smooth="yes"/>
      <point x="622" y="307" type="line" smooth="yes"/>
      <point x="622" y="356"/>
      <point x="667" y="377"/>
      <point x="743" y="377" type="curve" smooth="yes"/>
      <point x="820" y="377"/>
      <point x="864" y="356"/>
      <point x="864" y="307" type="curve" smooth="yes"/>
    </contour>
    <contour>
      <point x="587" y="65" type="line" smooth="yes"/>
      <point x="587" y="16"/>
      <point x="543" y="-5"/>
      <point x="466" y="-5" type="curve" smooth="yes"/>
      <point x="390" y="-5"/>
      <point x="345" y="16"/>
      <point x="345" y="65" type="curve" smooth="yes"/>
      <point x="345" y="307" type="line" smooth="yes"/>
      <point x="345" y="356"/>
      <point x="390" y="377"/>
      <point x="466" y="377" type="curve" smooth="yes"/>
      <point x="543" y="377"/>
      <point x="587" y="356"/>
      <point x="587" y="307" type="curve" smooth="yes"/>
    </contour>
    <contour>
      <point x="162" y="373" type="curve"/>
      <point x="162" y="655" type="line"/>
      <point x="154" y="657"/>
      <point x="147" y="657"/>
      <point x="141" y="657" type="curve" smooth="yes"/>
      <point x="135" y="657"/>
      <point x="128" y="657"/>
      <point x="120" y="655" type="curve"/>
      <point x="120" y="373" type="line"/>
      <point x="128" y="371"/>
      <point x="135" y="371"/>
      <point x="141" y="371" type="curve" smooth="yes"/>
      <point x="147" y="371"/>
      <point x="154" y="371"/>
    </contour>
    <contour>
      <point x="764" y="45" type="curve"/>
      <point x="764" y="327" type="line"/>
      <point x="756" y="329"/>
      <point x="749" y="329"/>
      <point x="743" y="329" type="curve" smooth="yes"/>
      <point x="737" y="329"/>
      <point x="730" y="329"/>
      <point x="722" y="327" type="curve"/>
      <point x="722" y="45" type="line"/>
      <point x="730" y="43"/>
      <point x="737" y="43"/>
      <point x="743" y="43" type="curve" smooth="yes"/>
      <point x="749" y="43"/>
      <point x="756" y="43"/>
    </contour>
    <contour>
      <point x="487" y="45" type="curve"/>
      <point x="487" y="327" type="line"/>
      <point x="479" y="329"/>
      <point x="472" y="329"/>
      <point x="466" y="329" type="curve" smooth="yes"/>
      <point x="460" y="329"/>
      <point x="453" y="329"/>
      <point x="445" y="327" type="curve"/>
      <point x="445" y="45" type="line"/>
      <point x="453" y="43"/>
      <point x="460" y="43"/>
      <point x="466" y="43" type="curve" smooth="yes"/>
      <point x="472" y="43"/>
      <point x="479" y="43"/>
    </contour>
  </outline>
</glyph>
<glyph name="guilsinglright" format="1">
  <advance width="240"/>
  <unicode hex="203A"/>
  <outline>
    <contour>
      <point x="230" y="230" type="line"/>
      <point x="151" y="0" type="line"/>
      <point x="15" y="0" type="line"/>
      <point x="97" y="230" type="line"/>
      <point x="15" y="460" type="line"/>
      <point x="151" y="460" type="line"/>
    </contour>
  </outline>
</glyph>
<glyph name="fraction" format="1">
  <advance width="184"/>
  <unicode hex="2044"/>
  <unicode hex="2215"/>
  <outline>
    <contour>
      <point x="179" y="700" type="line"/>
      <point x="58" y="0" type="line"/>
      <point x="5" y="0" type="line"/>
      <point x="126" y="700" type="line"/>
    </contour>
  </outline>
</glyph>
<glyph name="Euro" format="1">
  <advance width="391"/>
  <unicode hex="20AC"/>
  <outline>
    <contour>
      <point x="169" y="365" type="line"/>
      <point x="169" y="335" type="line"/>
      <point x="281" y="335" type="line"/>
      <point x="281" y="287" type="line"/>
      <point x="169" y="287" type="line"/>
      <point x="169" y="51" type="line"/>
      <point x="177" y="49"/>
      <point x="194" y="48"/>
      <point x="204" y="48" type="curve" smooth="yes"/>
      <point x="214" y="48"/>
      <point x="231" y="49"/>
      <point x="239" y="51" type="curve"/>
      <point x="239" y="220" type="line"/>
      <point x="361" y="220" type="line"/>
      <point x="361" y="70" type="line" smooth="yes"/>
      <point x="361" y="15"/>
      <point x="305" y="-5"/>
      <point x="204" y="-5" type="curve" smooth="yes"/>
      <point x="104" y="-5"/>
      <point x="47" y="15"/>
      <point x="47" y="70" type="curve" smooth="yes"/>
      <point x="47" y="287" type="line"/>
      <point x="17" y="287" type="line"/>
      <point x="17" y="335" type="line"/>
      <point x="47" y="335" type="line"/>
      <point x="47" y="365" type="line"/>
      <point x="17" y="365" type="line"/>
      <point x="17" y="413" type="line"/>
      <point x="47" y="413" type="line"/>
      <point x="47" y="630" type="line" smooth="yes"/>
      <point x="47" y="685"/>
      <point x="104" y="705"/>
      <point x="204" y="705" type="curve" smooth="yes"/>
      <point x="305" y="705"/>
      <point x="361" y="685"/>
      <point x="361" y="630" type="curve" smooth="yes"/>
      <point x="361" y="480" type="line"/>
      <point x="239" y="480" type="line"/>
      <point x="239" y="649" type="line"/>
      <point x="231" y="651"/>
      <point x="214" y="652"/>
      <point x="204" y="652" type="curve" smooth="yes"/>
      <point x="194" y="652"/>
      <point x="177" y="651"/>
      <point x="169" y="649" type="curve"/>
      <point x="169" y="413" type="line"/>
      <point x="281" y="413" type="line"/>
      <point x="281" y="365" type="line"/>
    </contour>
  </outline>
</glyph>
<glyph name="uni2117" format="1">
  <advance width="465"/>
  <unicode hex="2117"/>
  <outline>
    <contour>
      <point x="434" y="90" type="line" smooth="yes"/>
      <point x="434" y="7"/>
      <point x="338" y="-5"/>
      <point x="232" y="-5" type="curve" smooth="yes"/>
      <point x="125" y="-5"/>
      <point x="30" y="7"/>
      <point x="30" y="90" type="curve" smooth="yes"/>
      <point x="30" y="610" type="line" smooth="yes"/>
      <point x="30" y="693"/>
      <point x="126" y="705"/>
      <point x="232" y="705" type="curve" smooth="yes"/>
      <point x="339" y="705"/>
      <point x="434" y="693"/>
      <point x="434" y="610" type="curve" smooth="yes"/>
    </contour>
    <contour>
      <point x="398" y="90" type="curve" smooth="yes"/>
      <point x="398" y="610" type="line" smooth="yes"/>
      <point x="398" y="670"/>
      <point x="313" y="674"/>
      <point x="232" y="674" type="curve" smooth="yes"/>
      <point x="152" y="674"/>
      <point x="66" y="670"/>
      <point x="66" y="610" type="curve" smooth="yes"/>
      <point x="66" y="90" type="line" smooth="yes"/>
      <point x="66" y="30"/>
      <point x="151" y="26"/>
      <point x="232" y="26" type="curve" smooth="yes"/>
      <point x="312" y="26"/>
      <point x="398" y="30"/>
    </contour>
    <contour>
      <point x="351" y="359" type="line" smooth="yes"/>
      <point x="351" y="320"/>
      <point x="312" y="306"/>
      <point x="242" y="306" type="curve" smooth="yes"/>
      <point x="218" y="306" type="line"/>
      <point x="218" y="121" type="line"/>
      <point x="239" y="121" type="line"/>
      <point x="239" y="87" type="line"/>
      <point x="110" y="87" type="line"/>
      <point x="110" y="121" type="line"/>
      <point x="131" y="121" type="line"/>
      <point x="131" y="584" type="line"/>
      <point x="110" y="584" type="line"/>
      <point x="110" y="617" type="line"/>
      <point x="242" y="617" type="line" smooth="yes"/>
      <point x="312" y="617"/>
      <point x="351" y="603"/>
      <point x="351" y="565" type="curve" smooth="yes"/>
    </contour>
    <contour>
      <point x="264" y="342" type="curve"/>
      <point x="264" y="581" type="line"/>
      <point x="258" y="583"/>
      <point x="251" y="584"/>
      <point x="241" y="584" type="curve" smooth="yes"/>
      <point x="218" y="584" type="line"/>
      <point x="218" y="340" type="line"/>
      <point x="241" y="340" type="line" smooth="yes"/>
      <point x="251" y="340"/>
      <point x="258" y="340"/>
    </contour>
  </outline>
</glyph>
<glyph name="trademark" format="1">
  <advance width="630"/>
  <unicode hex="2122"/>
  <outline>
    <contour>
      <point x="611" y="206" type="line"/>
      <point x="507" y="206" type="line"/>
      <point x="507" y="556" type="line"/>
      <point x="469" y="206" type="line"/>
      <point x="397" y="206" type="line"/>
      <point x="359" y="556" type="line"/>
      <point x="359" y="206" type="line"/>
      <point x="299" y="206" type="line"/>
      <point x="299" y="240" type="line"/>
      <point x="320" y="240" type="line"/>
      <point x="320" y="667" type="line"/>
      <point x="299" y="667" type="line"/>
      <point x="299" y="700" type="line"/>
      <point x="416" y="700" type="line"/>
      <point x="453" y="362" type="line"/>
      <point x="493" y="700" type="line"/>
      <point x="611" y="700" type="line"/>
      <point x="611" y="667" type="line"/>
      <point x="590" y="667" type="line"/>
      <point x="590" y="240" type="line"/>
      <point x="611" y="240" type="line"/>
    </contour>
    <contour>
      <point x="281" y="532" type="line"/>
      <point x="211" y="532" type="line"/>
      <point x="211" y="668" type="line"/>
      <point x="192" y="668" type="line"/>
      <point x="192" y="240" type="line"/>
      <point x="215" y="240" type="line"/>
      <point x="215" y="206" type="line"/>
      <point x="83" y="206" type="line"/>
      <point x="83" y="240" type="line"/>
      <point x="106" y="240" type="line"/>
      <point x="106" y="668" type="line"/>
      <point x="87" y="668" type="line"/>
      <point x="87" y="532" type="line"/>
      <point x="17" y="532" type="line"/>
      <point x="17" y="700" type="line"/>
      <point x="281" y="700" type="line"/>
    </contour>
  </outline>
</glyph>
<glyph name="f_f_i" format="1">
  <advance width="586"/>
  <unicode hex="FB03"/>
  <outline>
    <contour>
      <point x="576" y="0" type="line"/>
      <point x="426" y="0" type="line"/>
      <point x="426" y="412" type="line"/>
      <point x="356" y="412" type="line"/>
      <point x="356" y="48" type="line"/>
      <point x="386" y="48" type="line"/>
      <point x="386" y="0" type="line"/>
      <point x="236" y="0" type="line"/>
      <point x="236" y="412" type="line"/>
      <point x="166" y="412" type="line"/>
      <point x="166" y="48" type="line"/>
      <point x="196" y="48" type="line"/>
      <point x="196" y="0" type="line"/>
      <point x="16" y="0" type="line"/>
      <point x="16" y="48" type="line"/>
      <point x="46" y="48" type="line"/>
      <point x="46" y="412" type="line"/>
      <point x="16" y="412" type="line"/>
      <point x="16" y="460" type="line"/>
      <point x="46" y="460" type="line"/>
      <point x="46" y="644" type="line" smooth="yes"/>
      <point x="46" y="687"/>
      <point x="74" y="700"/>
      <point x="116" y="700" type="curve" smooth="yes"/>
      <point x="209" y="700" type="line"/>
      <point x="209" y="652" type="line"/>
      <point x="166" y="652" type="line"/>
      <point x="166" y="460" type="line"/>
      <point x="236" y="460" type="line"/>
      <point x="236" y="644" type="line" smooth="yes"/>
      <point x="236" y="687"/>
      <point x="264" y="700"/>
      <point x="306" y="700" type="curve" smooth="yes"/>
      <point x="546" y="700" type="line"/>
      <point x="546" y="525" type="line"/>
      <point x="426" y="525" type="line"/>
      <point x="426" y="652" type="line"/>
      <point x="356" y="652" type="line"/>
      <point x="356" y="460" type="line"/>
      <point x="546" y="460" type="line"/>
      <point x="546" y="48" type="line"/>
      <point x="576" y="48" type="line"/>
    </contour>
  </outline>
</glyph>
